<mxfile host="app.diagrams.net" modified="2021-10-11T06:35:10.424Z" agent="5.0 (Windows NT 10.0; Win64; x64) AppleWebKit/537.36 (KHTML, like Gecko) Chrome/93.0.4577.82 Safari/537.36" etag="EemT0pGBURZgowFWhKjm" version="15.3.8" type="github">
  <diagram id="L08escGr5f01V_NW2MQc" name="第 1 页">
    <mxGraphModel dx="1662" dy="762" grid="1" gridSize="10" guides="1" tooltips="1" connect="1" arrows="1" fold="1" page="1" pageScale="1" pageWidth="827" pageHeight="1169" math="0" shadow="0">
      <root>
        <mxCell id="0" />
        <mxCell id="1" parent="0" />
        <mxCell id="nwQN5Aa6cSu29XIbnHUv-1" value="" style="shape=cube;whiteSpace=wrap;html=1;boundedLbl=1;backgroundOutline=1;darkOpacity=0.05;darkOpacity2=0.1;" vertex="1" parent="1">
          <mxGeometry x="230" y="340" width="40" height="60" as="geometry" />
        </mxCell>
        <mxCell id="nwQN5Aa6cSu29XIbnHUv-2" value="" style="shape=cylinder3;whiteSpace=wrap;html=1;boundedLbl=1;backgroundOutline=1;size=15;" vertex="1" parent="1">
          <mxGeometry x="140" y="580" width="40" height="40" as="geometry" />
        </mxCell>
        <mxCell id="nwQN5Aa6cSu29XIbnHUv-4" value="" style="shape=cube;whiteSpace=wrap;html=1;boundedLbl=1;backgroundOutline=1;darkOpacity=0.05;darkOpacity2=0.1;" vertex="1" parent="1">
          <mxGeometry x="176" y="500" width="40" height="60" as="geometry" />
        </mxCell>
        <mxCell id="nwQN5Aa6cSu29XIbnHUv-5" value="" style="shape=cube;whiteSpace=wrap;html=1;boundedLbl=1;backgroundOutline=1;darkOpacity=0.05;darkOpacity2=0.1;" vertex="1" parent="1">
          <mxGeometry x="219" y="500" width="40" height="60" as="geometry" />
        </mxCell>
        <mxCell id="nwQN5Aa6cSu29XIbnHUv-6" value="" style="shape=cube;whiteSpace=wrap;html=1;boundedLbl=1;backgroundOutline=1;darkOpacity=0.05;darkOpacity2=0.1;" vertex="1" parent="1">
          <mxGeometry x="262" y="500" width="40" height="60" as="geometry" />
        </mxCell>
        <mxCell id="nwQN5Aa6cSu29XIbnHUv-7" value="" style="shape=cube;whiteSpace=wrap;html=1;boundedLbl=1;backgroundOutline=1;darkOpacity=0.05;darkOpacity2=0.1;" vertex="1" parent="1">
          <mxGeometry x="305" y="500" width="40" height="60" as="geometry" />
        </mxCell>
        <mxCell id="nwQN5Aa6cSu29XIbnHUv-9" value="" style="shape=cube;whiteSpace=wrap;html=1;boundedLbl=1;backgroundOutline=1;darkOpacity=0.05;darkOpacity2=0.1;" vertex="1" parent="1">
          <mxGeometry x="154" y="650" width="40" height="60" as="geometry" />
        </mxCell>
        <mxCell id="nwQN5Aa6cSu29XIbnHUv-10" value="" style="shape=cube;whiteSpace=wrap;html=1;boundedLbl=1;backgroundOutline=1;darkOpacity=0.05;darkOpacity2=0.1;" vertex="1" parent="1">
          <mxGeometry x="197" y="650" width="40" height="60" as="geometry" />
        </mxCell>
        <mxCell id="nwQN5Aa6cSu29XIbnHUv-11" value="" style="shape=cube;whiteSpace=wrap;html=1;boundedLbl=1;backgroundOutline=1;darkOpacity=0.05;darkOpacity2=0.1;" vertex="1" parent="1">
          <mxGeometry x="240" y="650" width="40" height="60" as="geometry" />
        </mxCell>
        <mxCell id="nwQN5Aa6cSu29XIbnHUv-12" value="" style="shape=cube;whiteSpace=wrap;html=1;boundedLbl=1;backgroundOutline=1;darkOpacity=0.05;darkOpacity2=0.1;" vertex="1" parent="1">
          <mxGeometry x="283" y="650" width="40" height="60" as="geometry" />
        </mxCell>
        <mxCell id="nwQN5Aa6cSu29XIbnHUv-13" value="" style="shape=cube;whiteSpace=wrap;html=1;boundedLbl=1;backgroundOutline=1;darkOpacity=0.05;darkOpacity2=0.1;" vertex="1" parent="1">
          <mxGeometry x="326" y="650" width="40" height="60" as="geometry" />
        </mxCell>
        <mxCell id="nwQN5Aa6cSu29XIbnHUv-15" value="" style="shape=cylinder3;whiteSpace=wrap;html=1;boundedLbl=1;backgroundOutline=1;size=15;" vertex="1" parent="1">
          <mxGeometry x="240" y="580" width="40" height="40" as="geometry" />
        </mxCell>
        <mxCell id="nwQN5Aa6cSu29XIbnHUv-16" value="" style="shape=cylinder3;whiteSpace=wrap;html=1;boundedLbl=1;backgroundOutline=1;size=15;" vertex="1" parent="1">
          <mxGeometry x="330" y="584.5" width="40" height="40" as="geometry" />
        </mxCell>
        <mxCell id="nwQN5Aa6cSu29XIbnHUv-17" value="" style="shape=cylinder3;whiteSpace=wrap;html=1;boundedLbl=1;backgroundOutline=1;size=15;" vertex="1" parent="1">
          <mxGeometry x="180" y="430" width="40" height="40" as="geometry" />
        </mxCell>
        <mxCell id="nwQN5Aa6cSu29XIbnHUv-18" value="" style="shape=cylinder3;whiteSpace=wrap;html=1;boundedLbl=1;backgroundOutline=1;size=15;" vertex="1" parent="1">
          <mxGeometry x="280" y="430" width="40" height="40" as="geometry" />
        </mxCell>
        <mxCell id="nwQN5Aa6cSu29XIbnHUv-19" value="" style="shape=cube;whiteSpace=wrap;html=1;boundedLbl=1;backgroundOutline=1;darkOpacity=0.05;darkOpacity2=0.1;" vertex="1" parent="1">
          <mxGeometry x="600" y="340" width="40" height="60" as="geometry" />
        </mxCell>
        <mxCell id="nwQN5Aa6cSu29XIbnHUv-20" value="" style="shape=cylinder3;whiteSpace=wrap;html=1;boundedLbl=1;backgroundOutline=1;size=15;" vertex="1" parent="1">
          <mxGeometry x="510" y="580" width="40" height="40" as="geometry" />
        </mxCell>
        <mxCell id="nwQN5Aa6cSu29XIbnHUv-21" value="" style="shape=cube;whiteSpace=wrap;html=1;boundedLbl=1;backgroundOutline=1;darkOpacity=0.05;darkOpacity2=0.1;" vertex="1" parent="1">
          <mxGeometry x="557" y="500" width="40" height="60" as="geometry" />
        </mxCell>
        <mxCell id="nwQN5Aa6cSu29XIbnHUv-22" value="" style="shape=cube;whiteSpace=wrap;html=1;boundedLbl=1;backgroundOutline=1;darkOpacity=0.05;darkOpacity2=0.1;" vertex="1" parent="1">
          <mxGeometry x="600" y="500" width="40" height="60" as="geometry" />
        </mxCell>
        <mxCell id="nwQN5Aa6cSu29XIbnHUv-23" value="" style="shape=cube;whiteSpace=wrap;html=1;boundedLbl=1;backgroundOutline=1;darkOpacity=0.05;darkOpacity2=0.1;" vertex="1" parent="1">
          <mxGeometry x="644" y="500" width="40" height="60" as="geometry" />
        </mxCell>
        <mxCell id="nwQN5Aa6cSu29XIbnHUv-30" value="" style="shape=cylinder3;whiteSpace=wrap;html=1;boundedLbl=1;backgroundOutline=1;size=15;" vertex="1" parent="1">
          <mxGeometry x="610" y="580" width="40" height="40" as="geometry" />
        </mxCell>
        <mxCell id="nwQN5Aa6cSu29XIbnHUv-31" value="" style="shape=cylinder3;whiteSpace=wrap;html=1;boundedLbl=1;backgroundOutline=1;size=15;" vertex="1" parent="1">
          <mxGeometry x="700" y="584.5" width="40" height="40" as="geometry" />
        </mxCell>
        <mxCell id="nwQN5Aa6cSu29XIbnHUv-32" value="" style="shape=cylinder3;whiteSpace=wrap;html=1;boundedLbl=1;backgroundOutline=1;size=15;" vertex="1" parent="1">
          <mxGeometry x="600" y="430" width="40" height="40" as="geometry" />
        </mxCell>
        <mxCell id="nwQN5Aa6cSu29XIbnHUv-35" value="h6" style="text;html=1;strokeColor=none;fillColor=none;align=center;verticalAlign=middle;whiteSpace=wrap;rounded=0;" vertex="1" parent="1">
          <mxGeometry x="144" y="670" width="40" height="20" as="geometry" />
        </mxCell>
        <mxCell id="nwQN5Aa6cSu29XIbnHUv-36" value="h10" style="text;html=1;strokeColor=none;fillColor=none;align=center;verticalAlign=middle;whiteSpace=wrap;rounded=0;" vertex="1" parent="1">
          <mxGeometry x="188" y="670" width="40" height="20" as="geometry" />
        </mxCell>
        <mxCell id="nwQN5Aa6cSu29XIbnHUv-37" value="h11" style="text;html=1;strokeColor=none;fillColor=none;align=center;verticalAlign=middle;whiteSpace=wrap;rounded=0;" vertex="1" parent="1">
          <mxGeometry x="231" y="670" width="40" height="20" as="geometry" />
        </mxCell>
        <mxCell id="nwQN5Aa6cSu29XIbnHUv-38" value="h12" style="text;html=1;strokeColor=none;fillColor=none;align=center;verticalAlign=middle;whiteSpace=wrap;rounded=0;" vertex="1" parent="1">
          <mxGeometry x="274" y="670" width="40" height="20" as="geometry" />
        </mxCell>
        <mxCell id="nwQN5Aa6cSu29XIbnHUv-39" value="h15" style="text;html=1;strokeColor=none;fillColor=none;align=center;verticalAlign=middle;whiteSpace=wrap;rounded=0;" vertex="1" parent="1">
          <mxGeometry x="317" y="670" width="40" height="20" as="geometry" />
        </mxCell>
        <mxCell id="nwQN5Aa6cSu29XIbnHUv-40" value="" style="shape=cube;whiteSpace=wrap;html=1;boundedLbl=1;backgroundOutline=1;darkOpacity=0.05;darkOpacity2=0.1;" vertex="1" parent="1">
          <mxGeometry x="520" y="650" width="40" height="60" as="geometry" />
        </mxCell>
        <mxCell id="nwQN5Aa6cSu29XIbnHUv-41" value="" style="shape=cube;whiteSpace=wrap;html=1;boundedLbl=1;backgroundOutline=1;darkOpacity=0.05;darkOpacity2=0.1;" vertex="1" parent="1">
          <mxGeometry x="563" y="650" width="40" height="60" as="geometry" />
        </mxCell>
        <mxCell id="nwQN5Aa6cSu29XIbnHUv-42" value="" style="shape=cube;whiteSpace=wrap;html=1;boundedLbl=1;backgroundOutline=1;darkOpacity=0.05;darkOpacity2=0.1;" vertex="1" parent="1">
          <mxGeometry x="606" y="650" width="40" height="60" as="geometry" />
        </mxCell>
        <mxCell id="nwQN5Aa6cSu29XIbnHUv-43" value="" style="shape=cube;whiteSpace=wrap;html=1;boundedLbl=1;backgroundOutline=1;darkOpacity=0.05;darkOpacity2=0.1;" vertex="1" parent="1">
          <mxGeometry x="649" y="650" width="40" height="60" as="geometry" />
        </mxCell>
        <mxCell id="nwQN5Aa6cSu29XIbnHUv-44" value="" style="shape=cube;whiteSpace=wrap;html=1;boundedLbl=1;backgroundOutline=1;darkOpacity=0.05;darkOpacity2=0.1;" vertex="1" parent="1">
          <mxGeometry x="692" y="650" width="40" height="60" as="geometry" />
        </mxCell>
        <mxCell id="nwQN5Aa6cSu29XIbnHUv-45" value="h6" style="text;html=1;strokeColor=none;fillColor=none;align=center;verticalAlign=middle;whiteSpace=wrap;rounded=0;" vertex="1" parent="1">
          <mxGeometry x="510" y="670" width="40" height="20" as="geometry" />
        </mxCell>
        <mxCell id="nwQN5Aa6cSu29XIbnHUv-46" value="h10" style="text;html=1;strokeColor=none;fillColor=none;align=center;verticalAlign=middle;whiteSpace=wrap;rounded=0;" vertex="1" parent="1">
          <mxGeometry x="554" y="670" width="40" height="20" as="geometry" />
        </mxCell>
        <mxCell id="nwQN5Aa6cSu29XIbnHUv-47" value="h11" style="text;html=1;strokeColor=none;fillColor=none;align=center;verticalAlign=middle;whiteSpace=wrap;rounded=0;" vertex="1" parent="1">
          <mxGeometry x="597" y="670" width="40" height="20" as="geometry" />
        </mxCell>
        <mxCell id="nwQN5Aa6cSu29XIbnHUv-48" value="h12" style="text;html=1;strokeColor=none;fillColor=none;align=center;verticalAlign=middle;whiteSpace=wrap;rounded=0;" vertex="1" parent="1">
          <mxGeometry x="640" y="670" width="40" height="20" as="geometry" />
        </mxCell>
        <mxCell id="nwQN5Aa6cSu29XIbnHUv-49" value="h15" style="text;html=1;strokeColor=none;fillColor=none;align=center;verticalAlign=middle;whiteSpace=wrap;rounded=0;" vertex="1" parent="1">
          <mxGeometry x="683" y="670" width="40" height="20" as="geometry" />
        </mxCell>
        <mxCell id="nwQN5Aa6cSu29XIbnHUv-50" value="s2" style="text;html=1;strokeColor=none;fillColor=none;align=center;verticalAlign=middle;whiteSpace=wrap;rounded=0;" vertex="1" parent="1">
          <mxGeometry x="140" y="585" width="40" height="20" as="geometry" />
        </mxCell>
        <mxCell id="nwQN5Aa6cSu29XIbnHUv-51" value="s3" style="text;html=1;strokeColor=none;fillColor=none;align=center;verticalAlign=middle;whiteSpace=wrap;rounded=0;" vertex="1" parent="1">
          <mxGeometry x="240" y="585" width="40" height="20" as="geometry" />
        </mxCell>
        <mxCell id="nwQN5Aa6cSu29XIbnHUv-52" value="s4" style="text;html=1;strokeColor=none;fillColor=none;align=center;verticalAlign=middle;whiteSpace=wrap;rounded=0;" vertex="1" parent="1">
          <mxGeometry x="330" y="590" width="40" height="20" as="geometry" />
        </mxCell>
        <mxCell id="nwQN5Aa6cSu29XIbnHUv-53" value="s6" style="text;html=1;strokeColor=none;fillColor=none;align=center;verticalAlign=middle;whiteSpace=wrap;rounded=0;" vertex="1" parent="1">
          <mxGeometry x="510" y="585" width="40" height="20" as="geometry" />
        </mxCell>
        <mxCell id="nwQN5Aa6cSu29XIbnHUv-54" value="s7" style="text;html=1;strokeColor=none;fillColor=none;align=center;verticalAlign=middle;whiteSpace=wrap;rounded=0;" vertex="1" parent="1">
          <mxGeometry x="610" y="585" width="40" height="20" as="geometry" />
        </mxCell>
        <mxCell id="nwQN5Aa6cSu29XIbnHUv-55" value="s8" style="text;html=1;strokeColor=none;fillColor=none;align=center;verticalAlign=middle;whiteSpace=wrap;rounded=0;" vertex="1" parent="1">
          <mxGeometry x="700" y="590" width="40" height="20" as="geometry" />
        </mxCell>
        <mxCell id="nwQN5Aa6cSu29XIbnHUv-56" value="s1" style="text;html=1;strokeColor=none;fillColor=none;align=center;verticalAlign=middle;whiteSpace=wrap;rounded=0;" vertex="1" parent="1">
          <mxGeometry x="600" y="435" width="40" height="20" as="geometry" />
        </mxCell>
        <mxCell id="nwQN5Aa6cSu29XIbnHUv-57" value="s1" style="text;html=1;strokeColor=none;fillColor=none;align=center;verticalAlign=middle;whiteSpace=wrap;rounded=0;" vertex="1" parent="1">
          <mxGeometry x="180" y="435" width="40" height="20" as="geometry" />
        </mxCell>
        <mxCell id="nwQN5Aa6cSu29XIbnHUv-58" value="s5" style="text;html=1;strokeColor=none;fillColor=none;align=center;verticalAlign=middle;whiteSpace=wrap;rounded=0;" vertex="1" parent="1">
          <mxGeometry x="280" y="435" width="40" height="20" as="geometry" />
        </mxCell>
        <mxCell id="nwQN5Aa6cSu29XIbnHUv-59" value="h1" style="text;html=1;strokeColor=none;fillColor=none;align=center;verticalAlign=middle;whiteSpace=wrap;rounded=0;" vertex="1" parent="1">
          <mxGeometry x="219" y="360" width="40" height="20" as="geometry" />
        </mxCell>
        <mxCell id="nwQN5Aa6cSu29XIbnHUv-61" value="h1" style="text;html=1;strokeColor=none;fillColor=none;align=center;verticalAlign=middle;whiteSpace=wrap;rounded=0;" vertex="1" parent="1">
          <mxGeometry x="590" y="360" width="40" height="20" as="geometry" />
        </mxCell>
        <mxCell id="nwQN5Aa6cSu29XIbnHUv-62" value="h3" style="text;html=1;strokeColor=none;fillColor=none;align=center;verticalAlign=middle;whiteSpace=wrap;rounded=0;" vertex="1" parent="1">
          <mxGeometry x="168" y="520" width="40" height="20" as="geometry" />
        </mxCell>
        <mxCell id="nwQN5Aa6cSu29XIbnHUv-63" value="h5" style="text;html=1;strokeColor=none;fillColor=none;align=center;verticalAlign=middle;whiteSpace=wrap;rounded=0;" vertex="1" parent="1">
          <mxGeometry x="208" y="520" width="40" height="20" as="geometry" />
        </mxCell>
        <mxCell id="nwQN5Aa6cSu29XIbnHUv-64" value="h9" style="text;html=1;strokeColor=none;fillColor=none;align=center;verticalAlign=middle;whiteSpace=wrap;rounded=0;" vertex="1" parent="1">
          <mxGeometry x="252" y="520" width="40" height="20" as="geometry" />
        </mxCell>
        <mxCell id="nwQN5Aa6cSu29XIbnHUv-65" value="h13" style="text;html=1;strokeColor=none;fillColor=none;align=center;verticalAlign=middle;whiteSpace=wrap;rounded=0;" vertex="1" parent="1">
          <mxGeometry x="296" y="520" width="40" height="20" as="geometry" />
        </mxCell>
        <mxCell id="nwQN5Aa6cSu29XIbnHUv-66" value="h3" style="text;html=1;strokeColor=none;fillColor=none;align=center;verticalAlign=middle;whiteSpace=wrap;rounded=0;" vertex="1" parent="1">
          <mxGeometry x="590" y="520" width="40" height="20" as="geometry" />
        </mxCell>
        <mxCell id="nwQN5Aa6cSu29XIbnHUv-67" value="h2" style="text;html=1;strokeColor=none;fillColor=none;align=center;verticalAlign=middle;whiteSpace=wrap;rounded=0;" vertex="1" parent="1">
          <mxGeometry x="549" y="520" width="40" height="20" as="geometry" />
        </mxCell>
        <mxCell id="nwQN5Aa6cSu29XIbnHUv-68" value="h4" style="text;html=1;strokeColor=none;fillColor=none;align=center;verticalAlign=middle;whiteSpace=wrap;rounded=0;" vertex="1" parent="1">
          <mxGeometry x="637" y="520" width="40" height="20" as="geometry" />
        </mxCell>
      </root>
    </mxGraphModel>
  </diagram>
</mxfile>
